<svg version="1" xmlns="http://www.w3.org/2000/svg" width="1146.667" height="1146.667" viewBox="0 0 860.000000 860.000000"><path d="M496.2 58.7c-.6 3.2-3 16.6-5.2 29.8-2.3 13.2-5 28.9-6 34.9-1.1 6-2 11.5-2 12.1 0 .7 5.2 2.1 13.2 3.5 15.5 2.7 19.8 3.8 19.8 5 0 1.4 8.5 5.4 18.3 8.6 4.8 1.5 8.7 3.3 8.7 3.9 0 3.6-14.9 90.2-23.6 137.5-2.5 13.5-7.4 41.4-10.9 62s-8.2 47.8-10.5 60.5c-9.7 54.5-21.8 123.5-24.6 140.6l-.6 3.5 10.4 1.8c5.6 1 18.4 3.4 28.3 5.3 37.2 7.2 49.9 9.1 50.8 7.7.4-.8 1.8-1.4 3-1.4 3.7-.1 10.1-3.5 13.4-7.3 5.4-6.2 5.9-8.3 20.4-90.2 1.6-9.4 3.5-17.7 4.2-18.7.7-.9 2.9-3.6 4.9-6 3.8-4.6 5.1-8.9 8.7-31.3.5-3.3 1.9-11.2 3-17.5 4-22.9 9.1-51.7 11-62.5 1.1-6.1 3.2-17.8 4.6-26 1.4-8.3 3.2-18.4 4-22.5.7-4.1 2.3-12.9 3.5-19.5 1.1-6.6 3.1-18.1 4.4-25.5 4.1-22.9 4.1-21.9 1.2-30l-2.6-7.2 2-11.2c4.4-23.5 9-46 9.6-46.5.4-.3.4.7.1 2.4-2.1 10.3-2 10.4.4 10.9 1.3.3 4.2.7 6.4 1.1 2.2.3 15.1 2.6 28.8 5.2 24.6 4.7 24.7 4.7 24.7 7.2 0 3.1-3.1 21.8-9.5 57.6-15.5 87.2-23.4 131.5-38 214.5-7 39.3-13.1 74-13.6 77s-3.1 17.9-5.8 33c-2.7 15.1-4.6 27.8-4.3 28.1.4.4 7.2 1.8 15.2 3.3 10.3 1.9 15.5 3.4 18 5.1 2.7 1.7 8.3 3.2 23.5 5.9 11 2 22.4 4.1 25.4 4.6 7.8 1.4 8.1 1.4 9.6-2.3 1-2.6 2.3-3.6 5.3-4.5 2.4-.7 5.5-2.9 8-5.6 5.2-5.6 7.1-11.7 11.7-38.1 2-11 6.5-36.7 10.1-57l12-68c4.9-27.7 9.1-51.9 13.9-79 .9-5 2.7-15.1 4-22.5 1.3-7.4 4-22.5 5.9-33.5 2-11 5.4-30.4 7.6-43 2.2-12.7 6.8-38.5 10.1-57.5s6.4-36.3 6.9-38.5c.6-2.2 1.3-8.6 1.6-14.2.8-12.3-.6-17.3-6.7-22.7-2.5-2.3-3.9-4.5-3.9-6 0-1.4-.4-2.8-1-3.1-.5-.3-1-1.5-1-2.5 0-2.4 3.7-1.6-44-10-78.3-13.7-103.4-18-105.8-18-1.6 0-2.1 1.2-3.1 7.2-1.2 7.2-4.6 23-6.1 27.8-.5 1.7-.8.1-.8-4.8 0-9.8-3.2-16.5-9.8-20.7l-4.6-2.9.5-4.8c.4-2.6.5-4.8.3-4.8s-2.8-.5-5.7-1c-3-.6-18.2-3.3-33.9-6.1-15.7-2.7-33.4-5.9-39.5-7-28.4-5-69.6-11.9-71.3-11.9-1.6 0-2.2 1.1-3 5.7zM663.3 122c-.3 1.1-.7 2-.9 2-.2 0-.4-.9-.4-2s.4-2 .9-2 .7.9.4 2zm-2.8 16c-.4 2.3-.9 3.9-1.1 3.7-.3-.2-.2-2.3.2-4.6s.9-4 1.1-3.7c.3.3.2 2.3-.2 4.6zm-1.8 8.2c-.3.7-.5.2-.5-1.2s.2-1.9.5-1.3c.2.7.2 1.9 0 2.5z"/><path d="M152 244.6c0 .4-4.3 25-9.6 54.8-5.2 29.8-11.3 64.2-13.5 76.6-3.9 22.4-10.3 58.3-26.3 149-28.4 160.6-37.9 215.1-37.3 215.6.3.3 7.2 1.9 15.4 3.5 8.7 1.8 15.9 3.8 17.4 4.9 1.4 1 6.9 2.8 12.1 3.9 13.5 2.9 50.6 9.1 54.5 9.1 5.2 0 9.5-2.3 14.4-7.8 6.3-6.9 7.8-12.5 15.4-55 1.4-7.9 2.5-15 2.5-15.7 0-.7-1.3-1.6-3-2-1.6-.4-3.2-1-3.5-1.4-.7-1.2 12-72.5 14.9-84.1 1.3-5.2 3.4-11.8 4.6-14.5l2.2-5 7 14c6.7 13.3 14.5 29.7 54.6 115.5 9.4 20.1 21.5 45.9 26.9 57.5l9.9 21 13.1 2.6c7.2 1.5 13.6 2.9 14.1 3.3 2.7 1.6 52.7 10.7 54.7 10 .8-.4 7.6.4 15.1 1.6 7.4 1.2 13.7 2 14 1.8.2-.3-.2-2-1-3.9-1.3-3.1-1.2-3.6.5-5.8 2.5-3.1 2.5-11 0-18.2-1-3-5.3-12.3-9.6-20.8l-7.7-15.4.7-7.7c.6-6.7.4-8.3-1.4-11.7-1.6-3.3-2.8-4.2-6.3-5.2-2.4-.6-4.8-1.4-5.4-1.8-.7-.5-8.8-16.2-18.2-34.9l-17-34.2.5-7.8.5-7.9-19.6-39.5c-10.8-21.7-20.5-42.4-21.6-45.9-2.7-8.6-2.5-14.4.6-21.1 4.3-9.3 5.5-10.5 56.4-57.1 6.9-6.3 13.3-12.2 14.3-13.2s2.5-4.8 3.5-8.4l1.7-6.6 17-15.7c9.4-8.6 26-23.9 37-34 39.5-36.2 44.1-40.4 49.3-45.9 9-9.4 11.2-16.6 6.8-21.8l-2.5-2.8 4.7-4.7c2.5-2.6 4.4-4.9 4.1-5.2-.5-.5-68.4-12.5-102.4-18.1l-8-1.3-9 8.7c-4.9 4.7-37.6 36.6-72.5 70.7-74.8 73-81.5 79.4-83 79.4-2.1 0 .9-22.6 9.5-70 9.5-52.8 13.5-77.6 13.5-84.2 0-9.1-2.6-14.9-8.7-19.3-3.7-2.7-4.1-3.4-4.5-8l-.3-5-15.5-2.8c-22-3.9-74-12.7-75.1-12.7-.5 0-.9.3-.9.6z"/></svg>