<svg height="56.827358mm" viewBox="0 0 54.251022 56.827358" width="54.251022mm" xmlns="http://www.w3.org/2000/svg" xmlns:xlink="http://www.w3.org/1999/xlink"><linearGradient id="a" gradientTransform="matrix(.98480775 .17364818 -.17364818 .98480775 69.793285 -55.48932)" gradientUnits="userSpaceOnUse" x1="71.909828" x2="71.909828" y1="149.13718" y2="182.50714"><stop offset="0" stop-color="#03ab2d"/><stop offset="1" stop-color="#ee4136"/></linearGradient><filter id="b" color-interpolation-filters="sRGB"><feFlood flood-opacity=".498039" result="flood"/><feComposite in="flood" in2="SourceGraphic" operator="in" result="composite1"/><feGaussianBlur in="composite1" result="blur" stdDeviation="1"/><feOffset dx="1.5" dy=".5" result="offset"/><feComposite in="SourceGraphic" in2="offset" operator="over" result="composite2"/></filter><linearGradient id="c" gradientTransform="matrix(.98480775 .17364818 -.17364818 .98480775 69.793285 -55.48932)" gradientUnits="userSpaceOnUse" x1="114.02183" x2="114.02183" xlink:href="#d" y1="132.59538" y2="165.96533"/><linearGradient id="d"><stop offset="0" stop-color="#03d1ab"/><stop offset="1" stop-color="#0081d9"/></linearGradient><filter id="e" color-interpolation-filters="sRGB"><feFlood flood-opacity=".498039" result="flood"/><feComposite in="flood" in2="SourceGraphic" operator="in" result="composite1"/><feGaussianBlur in="composite1" result="blur" stdDeviation="1"/><feOffset dx="1.5" dy=".5" result="offset"/><feComposite in="SourceGraphic" in2="offset" operator="over" result="composite2"/></filter><linearGradient id="f" gradientTransform="matrix(.98480775 .17364818 -.17364818 .98480775 69.793285 -55.48932)" gradientUnits="userSpaceOnUse" x1="102.38842" x2="102.38842" xlink:href="#d" y1="166.10297" y2="132.73302"/><filter id="g" color-interpolation-filters="sRGB"><feFlood flood-opacity=".498039" result="flood"/><feComposite in="flood" in2="SourceGraphic" operator="in" result="composite1"/><feGaussianBlur in="composite1" result="blur" stdDeviation="1"/><feOffset dx="1.5" dy=".5" result="offset"/><feComposite in="SourceGraphic" in2="offset" operator="over" result="composite2"/></filter><g transform="translate(-105.97784 -87.770872)"><g fill="#808080" fill-opacity=".25098"><path d="m159.19314 95.205603-6.09231-1.07424-2.54839 14.452607-7.63515-16.248237-7.33747-1.2938 9.41424 18.900417-15.20888 13.96259 7.33748 1.29379 12.68486-12.39015-2.50134 14.18578 6.09233 1.07425z"/><path d="m131.56467 135.14444-4.13566-.72923 4.81448-27.30431-5.91446-1.04288-5.79463 32.86299 10.05012 1.7721z"/><path d="m120.08405 133.25985-4.13564-.72923 4.81448-27.30431-5.91443-1.04287-5.79463 32.86299 10.05007 1.77209z"/></g><path d="m108.91864 136.73189 6.09233 1.07424 2.54839-14.4526 7.63513 16.24823 7.33748 1.2938-9.41424-18.90041 15.20887-13.96259-7.33747-1.29379-12.68486 12.39015 2.50133-14.18578-6.09232-1.07424z" fill="url(#a)" filter="url(#b)"/><path d="m136.54712 96.793052 4.13566.72923-4.81449 27.304318 5.91446 1.04288 5.79464-32.862998-10.05013-1.7721z" fill="url(#f)" filter="url(#g)"/><path d="m148.02774 98.677642 4.13564.72923-4.81449 27.304318 5.91443 1.04287 5.79464-32.862998-10.05007-1.77209z" fill="url(#c)" filter="url(#e)"/></g></svg>