<svg height="56.82737mm" viewBox="0 0 54.251019 56.82737" width="54.251019mm" xmlns="http://www.w3.org/2000/svg" xmlns:xlink="http://www.w3.org/1999/xlink"><linearGradient id="a" gradientTransform="matrix(.98480775 .17364818 -.17364818 .98480775 36.323409 -19.147868)" gradientUnits="userSpaceOnUse" x1="114.02183" x2="114.02183" xlink:href="#b" y1="132.59538" y2="165.96533"/><linearGradient id="b"><stop offset="0" stop-color="#03d1ab"/><stop offset="1" stop-color="#0081d9"/></linearGradient><filter id="c" color-interpolation-filters="sRGB"><feFlood flood-opacity=".498039" result="flood"/><feComposite in="flood" in2="SourceGraphic" operator="in" result="composite1"/><feGaussianBlur in="composite1" result="blur" stdDeviation="1"/><feOffset dx="1.5" dy=".5" result="offset"/><feComposite in="SourceGraphic" in2="offset" operator="over" result="composite2"/></filter><linearGradient id="d" gradientTransform="matrix(.98480775 .17364818 -.17364818 .98480775 36.323409 -19.147868)" gradientUnits="userSpaceOnUse" x1="102.38842" x2="102.38842" xlink:href="#b" y1="166.10297" y2="132.73302"/><filter id="e" color-interpolation-filters="sRGB"><feFlood flood-opacity=".498039" result="flood"/><feComposite in="flood" in2="SourceGraphic" operator="in" result="composite1"/><feGaussianBlur in="composite1" result="blur" stdDeviation="1"/><feOffset dx="1.5" dy=".5" result="offset"/><feComposite in="SourceGraphic" in2="offset" operator="over" result="composite2"/></filter><linearGradient id="f" gradientTransform="matrix(.98480775 .17364818 -.17364818 .98480775 36.323409 -19.147868)" gradientUnits="userSpaceOnUse" x1="71.909828" x2="71.909828" y1="149.13718" y2="182.50714"><stop offset="0" stop-color="#ed8c37"/><stop offset="1" stop-color="#ee4136"/></linearGradient><filter id="g" color-interpolation-filters="sRGB"><feFlood flood-opacity=".498039" result="flood"/><feComposite in="flood" in2="SourceGraphic" operator="in" result="composite1"/><feGaussianBlur in="composite1" result="blur" stdDeviation="1"/><feOffset dx="1.5" dy=".5" result="offset"/><feComposite in="SourceGraphic" in2="offset" operator="over" result="composite2"/></filter><g transform="translate(-74.095467 -124.11232)"><g fill="#808080" fill-opacity=".25098"><path d="m125.72327 131.54706-6.09233-1.07424-2.54838 14.45261-7.63514-16.24824-7.33748-1.2938 9.41424 18.90042-15.208865 13.96258 7.337475 1.29379 12.68485-12.39014-2.50133 14.18577 6.09233 1.07425z"/><path d="m98.094795 171.4859-4.13566-.72923 4.814494-27.30431-5.914464-1.04288-5.79463 32.86299 10.05012 1.7721z"/><path d="m86.614175 169.6013-4.13564-.72923 4.81449-27.3043-5.91443-1.04287-5.79463 32.86299 10.05007 1.77209z"/></g><path d="m75.448763 173.07335 6.09234 1.07424 2.54838-14.4526 7.63514 16.24823 7.337473 1.2938-9.414243-18.90041 15.208867-13.9626-7.337467-1.29379-12.68485 12.39015 2.50133-14.18578-6.09233-1.07425z" fill="url(#f)" filter="url(#g)" stroke="#fff" stroke-opacity=".501961" stroke-width=".529167"/><path d="m103.07724 133.13451 4.13566.72923-4.81449 27.30432 5.91446 1.04288 5.79463-32.86301-10.05012-1.7721z" fill="url(#d)" filter="url(#e)" stroke="#fff" stroke-opacity=".501961" stroke-width=".529167"/><path d="m114.55786 135.0191 4.13564.72923-4.81449 27.30432 5.91443 1.04287 5.79463-32.863-10.05007-1.7721z" fill="url(#a)" filter="url(#c)" stroke="#fff" stroke-opacity=".501961" stroke-width=".529167"/></g></svg>