<svg version="1" xmlns="http://www.w3.org/2000/svg" width="1146.667" height="1146.667" viewBox="0 0 860.000000 860.000000"><path d="M469.8 94.7c-3.6 20.8-6.3 38.1-5.9 38.4.3.4 14.1 3 30.6 5.9 16.5 2.8 30.2 5.4 30.4 5.6.5.5-1.2 11.6-4.8 31.9-3 16.8-46.5 266.1-50.6 290-2 11.5-5.1 30-7 41-1.9 11-3.7 21.4-4.1 23.2-.6 3.1-.5 3.2 3.2 3.8 2.2.3 9.3 1.4 15.9 2.6 11.3 1.8 16.5 2.8 44 7.8 14.5 2.6 16.5 2.9 16.5 2.3 0-.3.7-3.9 1.5-8.1.8-4.2 2.6-14.1 4-22.1 1.5-8 3.5-19 4.5-24.5s2.8-15.2 3.9-21.5c1.9-10.6 5.6-31.4 14.5-81 16.8-93.6 54.6-307.3 54.4-307.5-.3-.3-17.7-3.5-42.8-7.9-4.7-.8-21.5-3.8-37.5-6.6-15.9-2.8-32.8-5.8-37.5-6.6-4.7-.8-12-2.1-16.4-2.9-4.3-.8-8.4-1.5-9-1.5-.8 0-3.4 12.7-7.8 37.7zM626.1 101.5c-.6 3-1.5 7.9-2.1 10.7-2 10.7-31.4 175.9-36.5 205.3-1.9 11-7.5 42.9-12.5 71-14 79.1-14.1 79.6-15.1 86-.5 3.3-1.7 10.9-2.8 17-12.5 70.3-13.4 76.5-12 76.5 2.5 0 6.9-4.4 9.3-9.3 2.9-6 3.6-9.2 11.1-52.2 3.1-17.6 6.1-34.4 6.6-37.3.8-4 2.2-6.5 5.9-10.9 3.1-3.6 5-6.9 5.3-9.2.3-2 2-11.5 3.7-21.1 3.6-20.3 8.1-45.7 11.5-65 3.9-22.2 7.4-42 9-51 .8-4.7 2.4-13.5 3.4-19.5 1.9-10.7 10.2-57.3 12.3-68.8.9-5.2.8-6.4-1.6-12.8l-2.6-7.1 3-17.7c1.7-9.7 4-21 5-25.1 1-4.1 2.1-9.5 2.5-12 .4-2.5 1.5-8.9 2.6-14.2 1-5.3 2.2-13.7 2.5-18.6.6-8 .4-9.5-1.6-13.6-1.2-2.6-3-5.1-4-5.6-1.7-.9-2-.4-2.9 4.5zM646.1 115.2c-1.8 8.8-8.1 44-8.1 45.3 0 .7 1.9 1.5 4.3 1.8 2.3.3 9.4 1.4 15.7 2.6 6.3 1.1 18.3 3.2 26.5 4.6 8.3 1.5 15.1 2.8 15.3 3 .2.2-2.2 14.4-5.3 31.7-31.2 173.4-67.6 379.2-67.3 380.7.3 1.3 7.7 2.9 38.3 8.3 20.9 3.7 39.1 6.7 40.5 6.7l2.6.1 4.8-27.3c2.6-14.9 6.5-37.1 8.6-49.2 2.2-12.1 16.3-93.3 31.5-180.5 15.1-87.2 28.2-162.3 29-167 4-22.4 7.3-43.5 6.9-43.9-.2-.2-.4.4-.4 1.3 0 1.4-.5 1.7-2.2 1.2-2.5-.6-11.6-2.3-30.3-5.6-6.6-1.1-16.7-2.9-22.5-4-5.8-1-16.1-2.8-23-4-12.2-2.1-22.2-3.8-44.5-7.9-6-1.1-12.9-2.2-15.2-2.5l-4.2-.6-1 5.2zM800.5 127.2c-.2 1.3-.9 4.4-1.5 7-.5 2.5-10.4 58.3-22 124-11.6 65.6-22.6 128.1-24.5 138.8-11 61.9-33.4 190.3-34 194.7-.8 6.1-.1 6.5 4.4 2.8 5.4-4.6 7.8-11.6 12.1-35.7 2.2-12.2 4.4-24.8 5-27.8.6-3 3.3-18.3 6-34s5.4-31 6-34c.6-3 3.3-18.6 6.1-34.5 13-74.3 14.9-85.4 15.9-90.5.6-3 2.8-15.6 5-28 4.2-24.2 5.7-32.9 9.5-54 1.3-7.4 3.1-17.6 4-22.5.8-5 2.7-15.3 4-23 1.4-7.7 4.5-25.5 7-39.5 5.2-29.4 5.5-34.8 2.2-41-2.7-5.1-4.4-6.1-5.2-2.8z"/><path d="M131.6 250.7c-.3 1-1 4.7-1.6 8.3-1.2 7.2-9 50.5-12 67-9.5 51.6-73.1 411.3-72.8 411.6.4.4 13.8 2.9 33.3 6.3 6.6 1.2 20.8 3.7 31.4 5.6 10.7 1.9 19.6 3.3 19.7 3.2.1-.1 4.6-25.2 9.9-55.7 5.3-30.5 11-62.9 12.6-72 1.6-9.1 6.1-34.7 9.9-57 3.9-22.3 7.2-41 7.4-41.5.2-.6 1 .6 1.8 2.5 1.5 3.3 41.1 87.9 94.6 201.8 18.5 39.5 24 50.4 25.6 50.7 1.2.3 21.5 3.9 45.1 8 23.7 4.1 45.2 7.9 48 8.4 2.7.5 5.3.7 5.7.5.4-.3-30.8-63.6-69.3-140.7-46.5-92.8-69.8-140.6-69.3-141.4.8-1.1 102.1-94.6 192.2-177.3 17.1-15.7 31.1-28.8 31.1-29.1.1-.3-3.2-1.1-7.1-1.8-4-.7-16.1-2.8-26.8-4.8-10.7-1.9-23.1-4.1-27.5-4.8-4.4-.7-14.7-2.5-22.8-4l-14.8-2.6-30.7 29.9c-133.9 130.4-167.7 163.1-168 162-.1-.7 5.4-33.7 12.3-73.3 21.4-122.8 25.6-146.8 25.2-147-.1-.1-4.7-.9-10.2-1.8-5.5-1-13.6-2.4-18-3.1-4.4-.8-17.2-3.1-28.5-5.1-11.3-1.9-21.7-3.8-23.2-4.1-2-.4-2.8-.1-3.2 1.3z"/><path d="M220.6 284.2c-.9 4-5.4 29.1-10.1 55.8-8.2 46.3-11.8 66.8-18.5 104.4-1.6 9.3-2.8 17.1-2.7 17.3.2.2 3.8-3.3 8-7.6 7.1-7.3 7.7-8.2 7.7-12 0-6.1.9-11.9 10-64.6 2.3-13.2 6.2-35.3 8.7-49 2.5-13.8 4.7-28.8 5-33.5.4-7.6.2-9-1.9-12.9-1.3-2.5-2.9-4.6-3.5-4.8-.7-.3-1.8 2.5-2.7 6.9zM466.3 330.3c-6.9 6-34.2 30.9-150.4 137.5-30.2 27.7-54.9 50.8-54.9 51.3 0 1.1 108.5 218.8 123.6 247.9 8.9 17.2 9.5 18.2 8.9 13.5-.3-3.3-2.9-10-7.7-19.7l-7.1-14.7.6-7.3c.6-7.1.5-7.5-3.6-15.3-4-7.6-4.4-8.1-9-9.5l-4.9-1.4-15.4-30.9-15.5-30.8.7-7.2.6-7.2-18.3-37c-23.4-47.1-25.7-52.2-27.4-60.2-2.8-13.5 1-22.1 16.9-37.8 9.6-9.5 47.3-44.4 58.8-54.3 3.1-2.7 4.2-4.8 5.9-10.7 2.1-7.1 2.4-7.5 11.8-16.1 5.3-4.8 14.3-13.1 20.1-18.4 5.8-5.3 16.8-15.4 24.5-22.5 40.1-36.8 45.2-41.8 48.7-47.6 1.8-2.9 2.5-7.9 1.1-7.9-.5 0-4 2.8-8 6.3zM172.6 555.1c-.3 1.3-5.3 29.2-11.1 61.9-5.7 32.7-12.7 72.1-15.5 87.5-6.2 34.1-8.9 51.8-8.3 52.7 1.7 2.9 11.2-1.7 15.3-7.4 4.3-5.8 6.4-13.6 11.1-40.1 2.2-12.8 4.3-24.2 4.6-25.4.4-1.8-.2-2.5-3.2-3.7-3.3-1.4-3.6-1.9-3.1-4.3.3-1.6 3.1-17.2 6.1-34.8 6.8-39 8.7-48.4 11.5-56.1 3.6-9.8 3.5-10.1-1.4-21.4-2.6-5.7-4.8-10.6-5.1-10.8-.2-.2-.6.6-.9 1.9z"/></svg>