<svg height="46.899727mm" viewBox="0 0 146.47502 46.899727" width="146.47502mm" xmlns="http://www.w3.org/2000/svg" xmlns:xlink="http://www.w3.org/1999/xlink"><linearGradient id="a" gradientUnits="userSpaceOnUse" x1="69.521599" x2="96.957268" xlink:href="#b" y1="265.58112" y2="265.58112"/><linearGradient id="b"><stop offset="0" stop-color="#0081d9"/><stop offset=".27291825" stop-color="#03d1ab"/><stop offset=".6562835" stop-color="#03ab2d"/><stop offset="1" stop-color="#ee4136"/></linearGradient><filter id="c" color-interpolation-filters="sRGB"><feFlood flood-opacity=".498039" result="flood"/><feComposite in="flood" in2="SourceGraphic" operator="in" result="composite1"/><feGaussianBlur in="composite1" result="blur" stdDeviation="1"/><feOffset dx="1.5" dy=".5" result="offset"/><feComposite in="SourceGraphic" in2="offset" operator="over" result="composite2"/></filter><linearGradient id="d" gradientTransform="matrix(.98480775 .17364818 -.17364818 .98480775 48.351549 -88.269175)" gradientUnits="userSpaceOnUse" x1="180.8486" x2="180.8486" xlink:href="#e" y1="227.84505" y2="261.21515"/><linearGradient id="e"><stop offset="0" stop-color="#03d1ab"/><stop offset="1" stop-color="#0081d9"/></linearGradient><filter id="f" color-interpolation-filters="sRGB"><feFlood flood-opacity=".498039" result="flood"/><feComposite in="flood" in2="SourceGraphic" operator="in" result="composite1"/><feGaussianBlur in="composite1" result="blur" stdDeviation="1"/><feOffset dx="1.5" dy=".5" result="offset"/><feComposite in="SourceGraphic" in2="offset" operator="over" result="composite2"/></filter><linearGradient id="g" gradientTransform="matrix(.98480775 .17364818 -.17364818 .98480775 48.351549 -88.269175)" gradientUnits="userSpaceOnUse" x1="169.25705" x2="169.25705" xlink:href="#e" y1="261.19849" y2="227.8284"/><filter id="h" color-interpolation-filters="sRGB"><feFlood flood-opacity=".498039" result="flood"/><feComposite in="flood" in2="SourceGraphic" operator="in" result="composite1"/><feGaussianBlur in="composite1" result="blur" stdDeviation="1"/><feOffset dx="1.5" dy=".5" result="offset"/><feComposite in="SourceGraphic" in2="offset" operator="over" result="composite2"/></filter><linearGradient id="i" gradientTransform="matrix(.98480775 .17364818 -.17364818 .98480775 48.351549 -88.269175)" gradientUnits="userSpaceOnUse" x1="45.161659" x2="45.161659" y1="244.79395" y2="278.16394"><stop offset="0" stop-color="#03ab2d"/><stop offset="1" stop-color="#ee4136"/></linearGradient><filter id="j" color-interpolation-filters="sRGB"><feFlood flood-opacity=".498039" result="flood"/><feComposite in="flood" in2="SourceGraphic" operator="in" result="composite1"/><feGaussianBlur in="composite1" result="blur" stdDeviation="1"/><feOffset dx="1.5" dy=".5" result="offset"/><feComposite in="SourceGraphic" in2="offset" operator="over" result="composite2"/></filter><linearGradient id="k" gradientUnits="userSpaceOnUse" x1="69.83651" x2="161.2018" xlink:href="#b" y1="252.98837" y2="252.98837"/><filter id="l" color-interpolation-filters="sRGB"><feFlood flood-opacity=".498039" result="flood"/><feComposite in="flood" in2="SourceGraphic" operator="in" result="composite1"/><feGaussianBlur in="composite1" result="blur" stdDeviation="1"/><feOffset dx="1.5" dy=".5" result="offset"/><feComposite in="SourceGraphic" in2="offset" operator="over" result="composite2"/></filter><g transform="translate(-41.583644 -156.94535)"><g fill="#808080" fill-opacity=".25098" transform="matrix(-.84693466 -.14933743 .14933743 -.84693466 158.48757 374.40746)"><path d="m36.44096 221.63758h8.195734v-2.95769h-5.102577v-13.72729h-3.093157z"/><path d="m44.500521 221.63758h3.409243l1.85138-4.31236h5.937954l1.783646 4.31236h3.409243l-6.99911-16.68498h-2.4384zm6.38951-7.27005 1.783646-5.05742 1.783644 5.05742z"/><path d="m56.274476 204.9526 4.899377 16.68498h2.4384l2.75449-11.04053 2.686757 11.04053h2.460976l4.8768-16.68498h-3.160889l-2.957687 11.65014-2.799647-11.65014h-2.257777l-2.8448 11.65014-2.93511-11.65014z"/><path d="m76.393044 221.63758h3.093148v-16.68498h-3.093148z"/><path d="m79.734178 221.63758h3.409233l1.851367-4.31236h5.937951l1.783649 4.31236h3.409241l-6.999111-16.68498h-2.4384zm6.389481-7.27005 1.783649-5.05742 1.783641 5.05742z"/><path d="m93.448379 207.91029h3.093149v13.72729h3.093161v-13.72729h3.093151v-2.95769h-9.279461z"/><path d="m103.24819 215.519c0 4.24462 2.34808 6.41209 5.62186 6.41209 3.29636 0 5.64445-2.14489 5.64445-6.41209v-10.5664h-3.09316v10.5664c0 2.61902-.99342 3.43182-2.52871 3.43182-1.58044 0-2.55129-.83537-2.55129-3.43182v-10.5664h-3.09315z"/><path d="m115.06622 221.63758h3.09316v-6.38951l4.38009 6.38951h3.81564l-4.51556-6.16373c3.00285-.74507 4.35752-2.57387 4.35752-5.17032 0-1.69333-.6096-3.13831-1.76107-4.10915-1.08373-.92569-2.28036-1.24178-4.56071-1.24178h-4.80907zm3.09316-8.71502v-5.01227h1.37724c2.93511 0 3.54471.99342 3.54471 2.48356 0 1.76106-1.016 2.52871-3.40924 2.52871z"/><path d="m126.25668 221.63758h3.40924l1.85138-4.31236h5.93796l1.78364 4.31236h3.40925l-6.99911-16.68498h-2.4384zm6.38951-7.27005 1.78365-5.05742 1.78364 5.05742z"/></g><path d="m187.759 167.66242-6.09234-1.07424-2.54839 14.4526-7.63513-16.24823-7.33746-1.2938 9.41423 18.90041-15.20889 13.96272 7.33747 1.29379 12.68487-12.39027-2.50136 14.1859 6.09235 1.07424z" fill="#808080" fill-opacity=".25098"/><g fill="#808080" fill-opacity=".25098" stroke-width=".3" transform="matrix(-.98480775 -.17364818 .17364818 -.98480775 190.697523 312.851931)"><path d="m141.79889 97.822379h4.19946v27.725661h6.0057v-33.370101h-10.20516z"/><path d="m153.39044 97.839032h4.19946v27.725658h6.0057v-33.370098h-10.20516z"/></g><g fill="#808080" fill-opacity=".25098" transform="matrix(-.84693466 -.14933743 .14933743 -.84693466 161.3387 376.52217)"><path d="m116.7572 201.39031c0 2.12231 1.17405 3.20605 2.81095 3.20605 1.64819 0 2.82224-1.07245 2.82224-3.20605v-5.2832h-1.54659v5.2832c0 1.30951-.49671 1.71591-1.26436 1.71591-.79023 0-1.27565-.41769-1.27565-1.71591v-5.2832h-1.54659z"/><path d="m123.98919 201.39031c0 2.12231 1.17405 3.20605 2.81094 3.20605 1.64819 0 2.82224-1.07245 2.82224-3.20605v-5.2832h-1.54659v5.2832c0 1.30951-.49671 1.71591-1.26436 1.71591-.79022 0-1.27565-.41769-1.27565-1.71591v-5.2832h-1.54658z"/><path d="m131.22117 204.4496h1.54659v-6.06213l3.48829 6.06213h1.72721v-8.34249h-1.54659v6.07342l-3.45442-6.07342h-1.76108z"/></g><g stroke="#fff" stroke-opacity=".501961"><g fill="url(#k)" filter="url(#l)" stroke-width=".3" transform="matrix(.98480775 .17364818 -.17364818 .98480775 48.351516 -88.269196)"><path d="m69.986509 261.33087h8.963378v-2.95769h-5.870223v-3.88338h5.621869v-2.95769h-5.621869v-3.92853h5.870223v-2.95769h-8.963378z"/><path d="m79.19048 244.64589 5.4864 10.52126v6.16372h3.093157v-6.16372l5.486402-10.52126h-3.341513l-3.680176 7.67645-3.702757-7.67645z"/><path d="m93.578519 261.33087h4.447823c4.289778 0 6.389508-1.91911 6.389508-4.96711 0-1.98685-.72249-3.2512-2.8448-4.13173 1.33209-.69992 1.85138-1.58045 1.85138-3.13832 0-1.55786-.69991-2.86737-1.89653-3.63502-.99342-.63218-2.032001-.8128-4.515558-.8128h-3.431823zm3.093157-2.95769v-4.2672h1.467556c2.144888 0 3.160888.69991 3.160888 2.19006 0 1.44496-.92569 2.07714-3.093155 2.07714zm0-7.29262v-3.40925h1.264356c1.603021 0 2.393248.54187 2.393248 1.69334 0 1.19662-.790227 1.71591-2.664181 1.71591z"/><path d="m104.22994 252.99967c0 4.80908 3.88338 8.62471 8.78275 8.62471 4.8542 0 8.60211-3.77049 8.60211-8.64729 0-4.76391-3.81565-8.62471-8.57954-8.62471-4.9671 0-8.80532 3.77049-8.80532 8.64729zm3.11573 0c0-3.22862 2.4384-5.66702 5.64445-5.66702 3.09313 0 5.50894 2.48355 5.50894 5.6896 0 3.20604-2.34807 5.62186-5.50894 5.62186-3.16089 0-5.64445-2.48355-5.64445-5.64444z"/><path d="m119.14463 261.33087h3.40925l1.85138-4.31236h5.93795l1.78365 4.31236h3.40924l-6.99911-16.68498h-2.4384zm6.38952-7.27004 1.78364-5.05743 1.78364 5.05743z"/><path d="m135.64721 261.33087h3.09316v-6.38951l4.38009 6.38951h3.81564l-4.51555-6.16372c3.00284-.74508 4.35751-2.57388 4.35751-5.17032 0-1.69334-.6096-3.13832-1.76107-4.10916-1.08373-.92569-2.28035-1.24178-4.56071-1.24178h-4.80907zm3.09316-8.71502v-5.01227h1.37724c2.93512 0 3.54472.99342 3.54472 2.48356 0 1.76106-1.016 2.52871-3.40925 2.52871z"/><path d="m147.68575 261.33087h3.88338c2.52871 0 4.04142-.24836 5.39608-.92569 2.57387-1.26434 4.08658-4.01883 4.08658-7.38293 0-3.16089-1.30951-5.77991-3.63502-7.17974-1.30951-.79022-3.29636-1.19662-5.91538-1.19662h-3.81564zm3.09315-2.95769v-10.7696h.6096c1.96427 0 3.02543.18062 3.99627.67733 1.58044.8128 2.55129 2.59645 2.55129 4.74134 0 2.00942-.92569 3.79306-2.41582 4.60586-.92569.51929-2.21263.74507-4.064.74507z"/></g><path d="m44.524441 193.51107 6.09233 1.07424 2.54839-14.45261 7.63513 16.24824 7.33747 1.29379-9.41424-18.9004 15.20889-13.96264-7.33748-1.2938-12.68486 12.3902 2.50135-14.18582-6.09234-1.07425z" fill="url(#i)" filter="url(#j)" stroke-width=".529167"/><path d="m164.44495 169.27575 4.13565.72922-4.81451 27.30445 5.91446 1.04288 5.79466-32.86314-10.05011-1.7721z" fill="url(#g)" filter="url(#h)" stroke-width=".529167"/><path d="m175.8575 171.30499 4.13567.72923-4.81451 27.30445 5.91445 1.04288 5.79465-32.86314-10.05012-1.7721z" fill="url(#d)" filter="url(#f)" stroke-width=".3"/><g fill="url(#a)" filter="url(#c)" stroke-width=".3" transform="matrix(.98480775 .17364818 -.17364818 .98480775 48.351516 -88.269196)"><path d="m69.671601 268.78151h4.763909v-1.34338h-2.968976l2.754489-3.56729v-1.34337h-4.233334v1.34337h2.438401l-2.754489 3.56729z"/><path d="m78.411848 268.78151h1.501421v-2.9464c0-.83538.05645-1.19662.248356-1.50142.237067-.37254.63218-.57574 1.106313-.57574.745067 0 1.196621.29352 1.196621 1.96427v3.05929h1.50142v-3.3528c0-1.1176-.112887-1.65947-.451554-2.14489-.4064-.58702-1.083733-.90311-1.952977-.90311-.7112 0-1.20791.21449-1.761069.74507v-.59831h-1.388531z"/><path d="m85.383971 268.78151h1.501423v-1.44498h-1.501423z"/><path d="m88.333723 268.78151h1.501421v-2.9464c0-.83538.05644-1.19662.248356-1.50142.237067-.37254.63218-.57574 1.106313-.57574.745067 0 1.196621.29352 1.196621 1.96427v3.05929h1.501423v-3.3528c0-1.1176-.11289-1.65947-.451557-2.14489-.4064-.58702-1.083733-.90311-1.952977-.90311-.7112 0-1.20791.21449-1.761066.74507v-.59831h-1.388534z"/><path d="m95.305846 268.78151h1.501423v-1.44498h-1.501423z"/></g></g></g></svg>